<svg width="1024" height="400" viewBox="0 0 1024 400" fill="none" xmlns="http://www.w3.org/2000/svg">
<path d="M773.333 355.311V46.3701H822.577V250.26L926.727 131.611H986.428L892.736 233.294L987.3 355.311H928.469L851.876 250.467L822.577 250.26V355.311H773.333Z" fill="#0A0A0A"/>
<path d="M624.053 360.482C550.843 360.482 511.186 308.992 511.186 243.222C511.186 177.021 550.843 125.963 624.053 125.963C697.7 125.963 736.919 177.021 736.919 243.222C736.919 308.992 697.7 360.482 624.053 360.482ZM562.607 243.222C562.607 294.28 590.498 319.81 624.053 319.81C658.042 319.81 685.497 294.28 685.497 243.222C685.497 192.166 658.042 166.204 624.053 166.204C590.498 166.204 562.607 192.166 562.607 243.222Z" fill="#0A0A0A"/>
<path d="M374.148 355.293V167.072L415.546 131.593H503.574V173.131H423.391V355.293H374.148Z" fill="#0A0A0A"/>
<path d="M185.819 361.01C91.9597 361.01 36 293.422 36 201.26C36 108.23 93.9584 39 187.651 39C260.861 39 314.462 76.2114 327.099 145.443H270.885C262.604 106.068 229.485 84.0008 187.651 84.0008C120.105 84.0008 90.473 141.98 90.473 201.26C90.473 260.538 120.105 318.085 187.651 318.085C252.146 318.085 280.471 271.787 282.649 233.279H185.472V188.475H332.329L332.09 211.9C332.09 298.942 296.32 361.01 185.819 361.01Z" fill="#0A0A0A"/>
</svg>
